# xmcd
#
# Track frame offsets: 
#        150
#        17230
#        39892
#        50250
#        69912
#        81080
#        92909
#        135501
#        162234
#        176346
#        190481
#        202314
#        216047
#        229704
#        246977
#        260822
#
# Disc length: 3645 seconds
#
# Revision: 0
# Processed by: cddbd v1.5.2PL0 Copyright (c) Steve Scherf et al.
# Submitted via: ExactAudioCopy v0.99pb5
#
DISCID=df0e3b10
DTITLE=Various Artist - Roots Of Blues - 16 Classic Blues Tracks
DYEAR=2006
DGENRE=Blues
TTITLE0=B B King - Guess Who
TTITLE1=The Yardbirds and Eric Clapton - Five Long Years
TTITLE2=Ray Charles - Hey Now
TTITLE3=Muddy Waters - Baby Please Don't Go
TTITLE4=Little Walter - I Just Keep Loving Her
TTITLE5=Joe Turner - Blues On Central Avenue
TTITLE6=Albert King - Stormy Monday Blues
TTITLE7=John Mayall and The Bluesbreakers - Tears Come Rollin' Down
TTITLE8=Big Joe Turner - Nobody Knows You When You're Down And Out
TTITLE9=Memphis Slim - Slim's Blues
TTITLE10=Canned Heat - Got My Mojo Working
TTITLE11=Lightnin' Hopkins - Mojo Hand
TTITLE12=Elmore James - My Bleeding Heart
TTITLE13=Mike Bloomfield - Jockey Blues
TTITLE14=Fenton Robinson - Little Red Rooster
TTITLE15=Billy Boy Arnold - Prisoners Plea
EXTD=
EXTT0=
EXTT1=
EXTT2=
EXTT3=
EXTT4=
EXTT5=
EXTT6=
EXTT7=
EXTT8=
EXTT9=
EXTT10=
EXTT11=
EXTT12=
EXTT13=
EXTT14=
EXTT15=
PLAYORDER=
